#!OML:ASF F:\VICON\USERDATA\INSTALL\rory3\rory3.ASF
:FULLY-SPECIFIED
:DEGREES
331
root -0.3225 22.8584 5.6743 -164.164 1.77217 176.895
lowerback 8.12688 -1.61373 -5.22251
upperback 0.721881 -2.50813 1.32699
thorax -3.52066 -1.13651 4.59079
lowerneck -16.1497 -1.00998 -7.5686
upperneck 39.7077 6.64708 -0.955148
head 17.1564 2.78781 2.5823
rclavicle -1.3418e-014 1.8487e-014
rhumerus -31.4842 -5.88247 -78.243
rradius 39.9084
rwrist 18.271
rhand -20.1131 3.2488
rfingers 7.12502
rthumb 6.23063 -26.6396
lclavicle -1.3418e-014 1.8487e-014
lhumerus -28.9408 7.73367 81.0007
lradius 41.7547
lwrist 1.70726
lhand -9.5682 28.0607
lfingers 7.12502
lthumb 16.3994 57.3874
rfemur -56.0464 0.617677 25.4548
rtibia 70.1011
rfoot -27.0312 -1.03581
rtoes 8.98552
lfemur -11.5535 -1.27074 -23.5879
ltibia 12.5191
lfoot 24.535 -6.75418
ltoes -17.7116
332
root -0.303655 22.9245 5.61134 -164.187 1.66686 176.892
lowerback 8.08251 -1.66117 -5.12607
upperback 0.796995 -2.5537 1.3746
thorax -3.41407 -1.16414 4.58659
lowerneck -16.3075 -1.02987 -7.62955
upperneck 39.7625 6.64876 -0.937201
head 17.2251 2.77188 2.60791
rclavicle -2.98177e-015 5.96354e-016
rhumerus -31.3856 -5.81194 -78.2331
rradius 40.0044
rwrist 18.1895
rhand -19.9463 3.44834
rfingers 7.12502
rthumb 6.39167 -26.4352
lclavicle -2.98177e-015 5.96354e-016
lhumerus -28.9059 7.67822 81.0497
lradius 41.3826
lwrist 1.01211
lhand -9.40209 28.1912
lfingers 7.12502
lthumb 16.5594 57.5047
rfemur -55.2882 0.524602 25.4861
rtibia 69.2906
rfoot -27.0245 -2.15523
rtoes 7.00944
lfemur -11.9438 -1.66264 -23.2077
ltibia 13.1926
lfoot 25.4531 -6.72884
ltoes -18.6323
333
root -0.285649 22.9961 5.55168 -164.198 1.55396 176.869
lowerback 8.09654 -1.70275 -5.01166
upperback 0.794966 -2.59893 1.38562
thorax -3.42339 -1.18772 4.53859
lowerneck -16.3464 -1.0456 -7.55614
upperneck 39.8852 6.68902 -1.00821
head 17.3101 2.79099 2.58005
rclavicle 3.6477e-014 8.15017e-015
rhumerus -31.391 -5.74012 -78.2464
rradius 40.0386
rwrist 18.171
rhand -19.8901 3.79363
rfingers 7.12502
rthumb 6.44589 -26.0883
lclavicle 3.6477e-014 8.15017e-015
lhumerus -28.9466 7.4613 81.0614
lradius 41.0193
lwrist 0.442658
lhand -9.2372 28.2228
lfingers 7.12502
lthumb 16.7181 57.523
rfemur -54.5487 0.358735 25.518
rtibia 68.4238
rfoot -26.9854 -2.48334
rtoes 6.58117
lfemur -12.4643 -1.94318 -22.8757
ltibia 14.2161
lfoot 25.7999 -6.94075
ltoes -19.4993
334
root -0.266094 23.0683 5.49585 -164.208 1.37823 176.913
lowerback 8.2062 -1.78439 -4.84753
upperback 0.746998 -2.69904 1.40882
thorax -3.52981 -1.23563 4.48647
lowerneck -16.3673 -0.986122 -7.30983
upperneck 39.9809 6.81898 -1.175
head 17.382 2.86084 2.49386
rclavicle -2.83268e-014 1.09332e-014
rhumerus -31.4191 -5.55848 -78.3683
rradius 40.0833
rwrist 18.1601
rhand -19.9872 3.74329
rfingers 7.12502
rthumb 6.35221 -26.1415
lclavicle -2.83268e-014 1.09332e-014
lhumerus -28.9793 7.42777 80.9802
lradius 40.618
lwrist -0.379782
lhand -8.99594 28.2841
lfingers 7.12502
lthumb 16.9503 57.5645
rfemur -53.8047 0.176759 25.6314
rtibia 67.4997
rfoot -26.86 -2.03876
rtoes 7.40815
lfemur -13.0681 -2.15813 -22.4969
ltibia 15.5183
lfoot 25.6211 -7.40834
ltoes -20.9321
335
root -0.244695 23.1444 5.44258 -164.202 1.09028 176.971
lowerback 8.25845 -1.889 -4.72134
upperback 0.731634 -2.82493 1.5129
thorax -3.56177 -1.29801 4.53974
lowerneck -16.3576 -0.977794 -7.23501
upperneck 39.9673 6.86412 -1.30887
head 17.3825 2.87332 2.42869
rclavicle 4.25399e-014 -9.93923e-016
rhumerus -31.3677 -5.14424 -78.4073
rradius 40.1863
rwrist 17.9013
rhand -20.0793 3.56445
rfingers 7.12502
rthumb 6.2633 -26.323
lclavicle 4.25399e-014 -9.93923e-016
lhumerus -29.0067 7.52454 81.0066
lradius 40.296
lwrist -1.49395
lhand -8.66156 28.3559
lfingers 7.12502
lthumb 17.2722 57.6083
rfemur -53.0371 -0.110369 25.7782
rtibia 66.5231
rfoot -26.6451 -0.476327
rtoes 10.8155
lfemur -13.7876 -2.3332 -22.0945
ltibia 17.1053
lfoot 25.0971 -7.73087
ltoes -22.6747
336
root -0.222434 23.2262 5.38777 -164.19 0.819896 176.978
lowerback 8.23685 -1.94555 -4.60852
upperback 0.715231 -2.88682 1.58087
thorax -3.56195 -1.32991 4.55289
lowerneck -16.2215 -1.1115 -7.47236
upperneck 39.9293 6.64489 -1.15615
head 17.3189 2.77514 2.49183
rclavicle -2.79292e-014 -1.59028e-015
rhumerus -31.3567 -4.94033 -78.3629
rradius 40.2412
rwrist 17.8164
rhand -20.165 3.52029
rfingers 7.12502
rthumb 6.18052 -26.3695
lclavicle -2.79292e-014 -1.59028e-015
lhumerus -29.0418 7.30041 81.0864
lradius 39.9584
lwrist -2.31538
lhand -8.80054 28.0812
lfingers 7.12502
lthumb 17.1384 57.3453
rfemur -52.2385 -0.435479 25.8731
rtibia 65.4863
rfoot -26.3844 -0.187004
rtoes 12.1472
lfemur -14.5893 -2.44233 -21.7573
ltibia 18.9271
lfoot 24.4668 -7.75937
ltoes -24.45
337
root -0.20233 23.308 5.33638 -164.166 0.584743 176.954
lowerback 8.24939 -1.97415 -4.4712
upperback 0.660364 -2.91566 1.58284
thorax -3.62982 -1.34395 4.48273
lowerneck -16.0293 -1.2003 -7.55439
upperneck 39.8265 6.47557 -1.12256
head 17.215 2.70887 2.47989
rclavicle -1.09332e-015 1.15295e-014
rhumerus -31.4762 -4.88504 -78.3447
rradius 40.3855
rwrist 17.7988
rhand -19.9666 3.27409
rfingers 7.12502
rthumb 6.37207 -26.6101
lclavicle -1.09332e-015 1.15295e-014
lhumerus -29.0744 6.97332 81.119
lradius 39.6799
lwrist -3.06004
lhand -9.02652 27.5416
lfingers 7.12502
lthumb 16.9209 56.8245
rfemur -51.4824 -0.757456 25.9201
rtibia 64.402
rfoot -26.0299 0.0338065
rtoes 13.4259
lfemur -15.4408 -2.64007 -21.4636
ltibia 20.9487
lfoot 23.714 -7.311
ltoes -24.7058
338
root -0.182792 23.3922 5.28738 -164.144 0.3231 176.887
lowerback 8.20651 -1.93406 -4.40791
upperback 0.648609 -2.97782 1.61341
thorax -3.61701 -1.42704 4.48723
lowerneck -15.917 -1.22104 -7.50361
upperneck 39.7013 6.40788 -1.19193
head 17.1246 2.68541 2.41862
rclavicle -6.26172e-015 1.59028e-015
rhumerus -31.4703 -4.76328 -78.2968
rradius 40.4219
rwrist 17.703
rhand -19.872 3.15941
rfingers 7.12502
rthumb 6.46343 -26.722
lclavicle -6.26172e-015 1.59028e-015
lhumerus -29.1442 6.8383 81.2083
lradius 39.605
lwrist -3.86202
lhand -8.82238 27.2715
lfingers 7.12502
lthumb 17.1174 56.5375
rfemur -50.7185 -1.11217 25.9156
rtibia 63.277
rfoot -25.6418 0.20209
rtoes 14.2272
lfemur -16.3404 -2.78949 -21.2234
ltibia 23.1196
lfoot 22.9679 -6.70466
ltoes -23.8367
339
root -0.164292 23.4796 5.23976 -164.137 -0.0139225 176.961
lowerback 8.17215 -1.99173 -4.16751
upperback 0.681647 -3.03084 1.67037
thorax -3.56685 -1.45978 4.41365
lowerneck -16.0748 -1.30385 -7.67292
upperneck 39.8441 6.27549 -0.939336
head 17.2292 2.63234 2.5478
rclavicle -3.34952e-014 -1.98785e-015
rhumerus -31.3156 -4.73207 -78.2453
rradius 40.3157
rwrist 17.782
rhand -19.9533 3.25163
rfingers 7.12502
rthumb 6.38492 -26.6321
lclavicle -3.34952e-014 -1.98785e-015
lhumerus -29.242 6.65492 81.2625
lradius 39.5624
lwrist -4.42796
lhand -8.64594 27.0283
lfingers 7.12502
lthumb 17.2872 56.2794
rfemur -49.8655 -1.4487 26.0551
rtibia 62.0997
rfoot -25.3035 0.355367
rtoes 14.1408
lfemur -17.3007 -2.89443 -20.8256
ltibia 25.428
lfoot 22.1202 -6.06955
ltoes -23.3171
340
root -0.14586 23.573 5.19401 -164.133 -0.289218 177.033
lowerback 8.15808 -2.01612 -3.96798
upperback 0.724681 -3.04524 1.71977
thorax -3.52025 -1.473 4.35204
lowerneck -16.297 -1.39394 -7.79036
upperneck 39.9848 6.14105 -0.749085
head 17.3561 2.57424 2.64187
rclavicle 2.36554e-014 -1.39149e-014
rhumerus -31.187 -4.7622 -78.1957
rradius 40.3392
rwrist 17.8136
rhand -20.0781 3.33159
rfingers 7.12502
rthumb 6.26446 -26.5558
lclavicle 2.36554e-014 -1.39149e-014
lhumerus -28.9782 6.34708 81.327
lradius 39.2605
lwrist -4.94141
lhand -8.48906 26.9419
lfingers 7.12502
lthumb 17.4382 56.1797
rfemur -48.9727 -1.74831 26.1828
rtibia 60.8699
rfoot -24.8845 0.537777
rtoes 13.5576
lfemur -18.3752 -2.83037 -20.4574
ltibia 27.9162
lfoot 21.1739 -5.57386
ltoes -22.4174
341
root -0.125463 23.6705 5.14834 -164.166 -0.408912 176.944
lowerback 8.17134 -1.97829 -4.02273
upperback 0.757413 -3.00101 1.74519
thorax -3.49401 -1.4523 4.40475
lowerneck -16.2524 -1.42849 -7.62417
upperneck 39.8426 6.10579 -1.02771
head 17.2887 2.55013 2.4735
rclavicle -2.75317e-014 7.95139e-015
rhumerus -31.1996 -4.78073 -78.0874
rradius 40.5065
rwrist 17.7462
rhand -20.2036 3.52443
rfingers 7.12502
rthumb 6.14327 -26.3665
lclavicle -2.75317e-014 7.95139e-015
lhumerus -28.6728 6.27292 81.4569
lradius 39.0063
lwrist -5.55106
lhand -8.30299 27.136
lfingers 7.12502
lthumb 17.6173 56.3579
rfemur -48.0488 -2.01276 26.1381
rtibia 59.5752
rfoot -24.4548 0.680334
rtoes 12.9735
lfemur -19.4609 -2.63574 -20.3183
ltibia 30.5804
lfoot 20.1245 -5.25343
ltoes -20.9962
